<svg width="20" height="20" viewBox="0 0 20 20" fill="none" xmlns="http://www.w3.org/2000/svg">
<path d="M17.778 10C17.778 7.83333 17.0233 5.99332 15.514 4.48665C14.0047 2.97999 12.1667 2.22005 10 2.22005V0C11.3887 0 12.69 0.266628 13.9027 0.793294C15.116 1.31996 16.1713 2.03327 17.0693 2.93327C17.9673 3.8266 18.6807 4.8866 19.208 6.09994C19.736 7.31327 20 8.61333 20 10H17.778ZM13.3333 10C13.3333 9.07333 13.0093 8.28664 12.3613 7.63997C11.7127 6.99331 10.926 6.66667 10 6.66667V4.44661C11.5373 4.44661 12.8473 4.98673 13.9307 6.06673C15.014 7.1534 15.5553 8.46 15.5553 10H13.3333ZM18.8333 20C16.5187 20 14.2313 19.4933 11.972 18.4867C9.71267 17.48 7.65733 16.0467 5.80533 14.1934C3.954 12.34 2.52334 10.2867 1.514 8.02669C0.504603 5.76669 0 3.48 0 1.16667C0 0.833333 0.111133 0.553333 0.333333 0.333333C0.555533 0.113333 0.833333 0 1.16667 0H5.66667C5.926 0 6.15733 0.0866016 6.36133 0.266602C6.56467 0.439935 6.68533 0.646719 6.722 0.886719L7.44467 4.77995C7.48133 5.07328 7.472 5.32669 7.41667 5.52669C7.36133 5.73336 7.25933 5.90672 7.11133 6.05339L4.41667 8.77995C4.78733 9.45995 5.22666 10.1266 5.736 10.7666C6.24533 11.3999 6.80533 12.0199 7.41667 12.6133C7.99067 13.1866 8.59267 13.72 9.222 14.2067C9.852 14.7 10.5187 15.1467 11.222 15.5534L13.8333 12.9466C14 12.7799 14.2173 12.6534 14.486 12.5667C14.7547 12.4867 15.0187 12.46 15.278 12.5L19.1113 13.2799C19.3707 13.3533 19.5833 13.4867 19.75 13.68C19.9167 13.8733 20 14.0933 20 14.3333V18.8333C20 19.1667 19.8887 19.4467 19.6667 19.6667C19.4447 19.8867 19.1667 20 18.8333 20ZM3.36133 6.66667L5.19467 4.83333L4.722 2.22005H2.25C2.34267 2.98005 2.472 3.73331 2.63867 4.47331C2.80533 5.21331 3.046 5.94667 3.36133 6.66667ZM13.3053 16.6133C14.028 16.9266 14.764 17.1734 15.514 17.36C16.264 17.5467 17.0187 17.6667 17.778 17.7201V15.2799L15.1667 14.7467L13.3053 16.6133Z" fill="#D5D6D8"/>
</svg>
