<svg width="20" height="20" viewBox="0 0 20 20" fill="none" xmlns="http://www.w3.org/2000/svg">
<path d="M9.524 9.47331L1.90467 4.21322V14.7399H10.476V16.8398H1.90467C1.38067 16.8398 0.932668 16.6332 0.559535 16.2266C0.186535 15.8132 0 15.3132 0 14.7399V2.10677C0 1.52677 0.186535 1.03345 0.559535 0.620117C0.932668 0.206784 1.38067 0 1.90467 0H17.1427C17.6667 0 18.1153 0.206784 18.488 0.620117C18.8613 1.03345 19.0473 1.52677 19.0473 2.10677V9.47331H17.1427V4.21322L9.524 9.47331ZM9.524 7.36654L17.1427 2.10677H1.90467L9.524 7.36654ZM16.1907 20L14.8573 18.5267L16.3573 16.8398H12.3807V14.7399H16.3573L14.8333 13.0534L16.1907 11.5801L20 15.7868L16.1907 20ZM1.90467 4.21322V15.7868V9.47331V9.55339V2.10677V4.21322Z" fill="#D5D6D8"/>
</svg>
